<svg width="24" height="24" viewBox="0 0 24 24" fill="none" xmlns="http://www.w3.org/2000/svg">
<path d="M11.9984 7.20039C11.9984 9.85136 9.8494 12.0004 7.19844 12.0004C4.54747 12.0004 2.39844 9.85136 2.39844 7.20039C2.39844 4.54942 4.54747 2.40039 7.19844 2.40039C9.8494 2.40039 11.9984 4.54942 11.9984 7.20039Z" fill="#B6B6B6"/>
<path d="M21.6 7.20039C21.6 9.85136 19.451 12.0004 16.8 12.0004C14.149 12.0004 12 9.85136 12 7.20039C12 4.54942 14.149 2.40039 16.8 2.40039C19.451 2.40039 21.6 4.54942 21.6 7.20039Z" fill="#F67011"/>
<path d="M21.6 16.8C21.6 19.451 19.451 21.6 16.8 21.6C14.149 21.6 12 19.451 12 16.8C12 14.149 14.149 12 16.8 12C19.451 12 21.6 14.149 21.6 16.8Z" fill="#B6B6B6"/>
<path d="M11.9984 16.8C11.9984 19.451 9.8494 21.6 7.19844 21.6C4.54747 21.6 2.39844 19.451 2.39844 16.8C2.39844 14.149 4.54747 12 7.19844 12C9.8494 12 11.9984 14.149 11.9984 16.8Z" fill="#F67011"/>
</svg>
