<svg width="24" height="24" viewBox="0 0 24 24" fill="none" xmlns="http://www.w3.org/2000/svg">
<path d="M2.39844 9.00039C2.39844 11.6627 3.97479 13.9569 6.24506 15.0004H2.39844C2.39844 18.6455 5.35336 21.6004 8.99844 21.6004C11.6608 21.6004 13.9549 20.024 14.9984 17.7538V21.6004C18.6435 21.6004 21.5984 18.6455 21.5984 15.0004C21.5984 12.3381 20.0221 10.0439 17.7518 9.00039H21.5984C21.5984 5.35531 18.6435 2.40039 14.9984 2.40039C12.3361 2.40039 10.042 3.97674 8.99844 6.24701V2.40039C5.35336 2.40039 2.39844 5.35531 2.39844 9.00039Z" fill="#F67011"/>
<path d="M15 12C15 13.6569 13.6569 15 12 15C10.3431 15 9 13.6569 9 12C9 10.3431 10.3431 9 12 9C13.6569 9 15 10.3431 15 12Z" fill="#B6B6B6"/>
</svg>
