<svg width="24" height="24" viewBox="0 0 24 24" fill="none" xmlns="http://www.w3.org/2000/svg">
<mask id="mask0_795_2415" style="mask-type:luminance" maskUnits="userSpaceOnUse" x="2" y="2" width="20" height="20">
<path d="M22 2H2V22H22V2Z" fill="white"/>
</mask>
<g mask="url(#mask0_795_2415)">
<path d="M11.9578 21.9964H12.0375C16.0085 21.9964 18.3134 21.5966 19.9461 20.0115C21.6108 18.3302 21.9953 16.0096 21.9953 12.0541V11.9423C21.9953 7.98798 21.6108 5.68299 19.9461 3.98488C18.3146 2.39983 15.993 2 12.0387 2H11.9589C7.98799 2 5.6818 2.39983 4.04915 3.98488C2.38436 5.66633 2 7.98798 2 11.9423V12.0541C2 16.0085 2.38436 18.3135 4.04915 20.0115C5.66634 21.5966 7.98798 21.9964 11.9578 21.9964Z" fill="#FBFBFB"/>
<path d="M19.6173 11.847C19.6173 11.7708 19.5554 11.7078 19.4793 11.7042C16.7462 11.6007 15.0829 11.2521 13.9193 10.0884C12.7532 8.92241 12.4058 7.25784 12.3023 4.51887C12.2999 4.44273 12.2368 4.38086 12.1595 4.38086H11.8406C11.7645 4.38086 11.7014 4.44273 11.6978 4.51887C11.5943 7.25665 11.2469 8.92241 10.0809 10.0884C8.91603 11.2533 7.25384 11.6007 4.52083 11.7042C4.44468 11.7066 4.38281 11.7696 4.38281 11.847V12.1659C4.38281 12.242 4.44468 12.3051 4.52083 12.3086C7.25384 12.4121 8.91721 12.7608 10.0809 13.9244C11.2445 15.0881 11.5919 16.7479 11.6966 19.4761C11.699 19.5522 11.7621 19.6141 11.8394 19.6141H12.1595C12.2356 19.6141 12.2987 19.5522 12.3023 19.4761C12.407 16.7479 12.7544 15.0881 13.9181 13.9244C15.0829 12.7596 16.745 12.4121 19.4781 12.3086C19.5542 12.3063 19.6161 12.2432 19.6161 12.1659V11.847H19.6173Z" fill="#F67011"/>
</g>
</svg>
