<svg width="24" height="24" viewBox="0 0 24 24" fill="none" xmlns="http://www.w3.org/2000/svg">
<rect x="2" y="2" width="20" height="20" rx="5" fill="#FBFBFB"/>
<path d="M16.637 8.7993C16.487 10.3793 15.837 14.2193 15.507 15.9893C15.367 16.7393 15.087 16.9893 14.827 17.0193C14.247 17.0693 13.807 16.6393 13.247 16.2693C12.367 15.6893 11.867 15.3293 11.017 14.7693C10.027 14.1193 10.667 13.7593 11.237 13.1793C11.387 13.0293 13.947 10.6993 13.997 10.4893C14.0039 10.4575 14.003 10.4245 13.9943 10.3931C13.9856 10.3617 13.9693 10.333 13.947 10.3093C13.887 10.2593 13.807 10.2793 13.737 10.2893C13.647 10.3093 12.247 11.2393 9.51697 13.0793C9.11697 13.3493 8.75697 13.4893 8.43697 13.4793C8.07697 13.4693 7.39697 13.2793 6.88697 13.1093C6.25697 12.9093 5.76697 12.7993 5.80697 12.4493C5.82697 12.2693 6.07697 12.0893 6.54697 11.8993C9.46697 10.6293 11.407 9.7893 12.377 9.3893C15.157 8.2293 15.727 8.0293 16.107 8.0293C16.187 8.0293 16.377 8.0493 16.497 8.1493C16.597 8.2293 16.627 8.3393 16.637 8.4193C16.627 8.4793 16.647 8.6593 16.637 8.7993Z" fill="#F67011"/>
</svg>
