<svg width="24" height="24" viewBox="0 0 24 24" fill="none" xmlns="http://www.w3.org/2000/svg">
<rect x="2" y="2" width="20" height="20" rx="5" fill="#FBFBFB"/>
<path d="M7.23329 17.2667C6.89414 17.2667 6.6039 17.1461 6.36259 16.9048C6.12127 16.6634 6.00041 16.373 6 16.0334V8.63368C6 8.29453 6.12086 8.00429 6.36259 7.76298C6.60431 7.52166 6.89455 7.4008 7.23329 7.40039H17.0996C17.4388 7.40039 17.7292 7.52125 17.971 7.76298C18.2127 8.0047 18.3333 8.29494 18.3329 8.63368V16.0334C18.3329 16.3726 18.2123 16.663 17.971 16.9048C17.7296 17.1465 17.4392 17.2671 17.0996 17.2667H7.23329ZM12.3286 12.8195C12.385 12.8039 12.4388 12.7806 12.4902 12.7498L16.853 10.0211C16.9352 9.96975 16.9969 9.90562 17.038 9.82874C17.0791 9.75187 17.0996 9.66698 17.0996 9.57407C17.0996 9.36852 17.0123 9.21436 16.8376 9.11158C16.6628 9.00881 16.483 9.01395 16.298 9.127L12.1665 11.7169L8.03493 9.127C7.84994 9.01395 7.67008 9.01148 7.49537 9.1196C7.32065 9.22772 7.23329 9.37921 7.23329 9.57407C7.23329 9.67684 7.25385 9.76687 7.29496 9.84416C7.33607 9.92145 7.39773 9.98044 7.47995 10.0211L11.8427 12.7498C11.8941 12.7806 11.9482 12.8039 12.0049 12.8195C12.0616 12.8351 12.1155 12.8427 12.1665 12.8423C12.2174 12.8419 12.2715 12.8343 12.3286 12.8195Z" fill="#F67011"/>
</svg>
