<svg width="24" height="24" viewBox="0 0 24 24" fill="none" xmlns="http://www.w3.org/2000/svg">
<path d="M15.0322 2H8.96778C3.32333 2 2 3.32222 2 8.96778V15.0967C2 20.6778 3.32222 22 8.96778 22H15.0967C20.6778 22 22 20.6778 22 15.0322V8.96778C22 3.32333 20.6778 2 15.0322 2ZM18.1289 16.2578H16.6778C16.1289 16.2578 15.9356 15.8067 14.9356 14.8067C14.0644 13.9356 13.6778 13.8389 13.4844 13.8389C13.2256 13.8389 13.1289 13.8711 13.1289 14.29V15.6122C13.1289 15.9678 13.0322 16.1611 12.0967 16.1611C10.5489 16.1611 8.87111 15.1944 7.64556 13.4833C5.83889 10.9356 5.38667 9.03222 5.38667 8.61333C5.38667 8.38667 5.42 8.19333 5.83889 8.19333H7.28889C7.64444 8.19333 7.80556 8.32222 7.93333 8.74222C8.67667 10.8389 9.83778 12.6456 10.3533 12.6456C10.5478 12.6456 10.6122 12.5478 10.6122 12.0967V9.96778C10.5789 8.96778 10.0633 8.93444 10.0633 8.51667C10.0633 8.38667 10.1922 8.16111 10.4189 8.16111H12.6767C12.9989 8.16111 13.0956 8.29 13.0956 8.71V11.5811C13.0956 11.9033 13.2244 12 13.3211 12C13.5156 12 13.6767 11.9033 13.9989 11.5489C15.0311 10.3544 15.7733 8.58111 15.7733 8.58111C15.87 8.35445 16.0311 8.16111 16.4178 8.16111H17.87C18.3211 8.16111 18.4178 8.38667 18.3211 8.71C18.1278 9.58111 16.3544 12.0656 16.3544 12.0656C16.2244 12.29 16.1278 12.4189 16.3544 12.71C16.4822 12.9356 17.0311 13.3544 17.3544 13.7422C17.9989 14.4844 18.45 15.0644 18.58 15.4844C18.7411 16.0322 18.5467 16.2578 18.1278 16.2578" fill="#FBFBFB"/>
<path d="M18.1278 16.2578H16.6778C16.1289 16.2578 15.9356 15.8067 14.9356 14.8067C14.0644 13.9356 13.6778 13.8389 13.4844 13.8389C13.2256 13.8389 13.1289 13.8711 13.1289 14.29V15.6122C13.1289 15.9678 13.0322 16.1611 12.0967 16.1611C10.5489 16.1611 8.87111 15.1944 7.64556 13.4833C5.83889 10.9356 5.38667 9.03222 5.38667 8.61333C5.38667 8.38667 5.42 8.19333 5.83889 8.19333H7.28889C7.64444 8.19333 7.80556 8.32222 7.93333 8.74222C8.67667 10.8389 9.83778 12.6456 10.3533 12.6456C10.5478 12.6456 10.6122 12.5478 10.6122 12.0967V9.96778C10.5789 8.96778 10.0633 8.93444 10.0633 8.51667C10.0633 8.38667 10.1922 8.16111 10.4189 8.16111H12.6767C12.9989 8.16111 13.0956 8.29 13.0956 8.71V11.5811C13.0956 11.9033 13.2244 12 13.3211 12C13.5156 12 13.6767 11.9033 13.9989 11.5489C15.0311 10.3544 15.7733 8.58111 15.7733 8.58111C15.87 8.35445 16.0311 8.16111 16.4178 8.16111H17.87C18.3211 8.16111 18.4178 8.38667 18.3211 8.71C18.1278 9.58111 16.3544 12.0656 16.3544 12.0656C16.2244 12.29 16.1278 12.4189 16.3544 12.71C16.4822 12.9356 17.0311 13.3544 17.3544 13.7422C17.9989 14.4844 18.45 15.0644 18.58 15.4844C18.7411 16.0322 18.5467 16.2578 18.1278 16.2578Z" fill="#F67011"/>
</svg>
