<svg width="24" height="24" viewBox="0 0 24 24" fill="none" xmlns="http://www.w3.org/2000/svg">
<g clip-path="url(#clip0_795_2394)">
<path d="M17.5064 2H7.49362C4.73572 2 2.5 4.23572 2.5 6.99362V17.0064C2.5 19.7643 4.73572 22 7.49362 22H17.5064C20.2643 22 22.5 19.7643 22.5 17.0064V6.99362C22.5 4.23572 20.2643 2 17.5064 2Z" fill="#FBFBFB"/>
<path fill-rule="evenodd" clip-rule="evenodd" d="M12.6815 18.96C11.3016 18.96 10.6603 18.7586 9.54567 17.9528C8.84061 18.8593 6.60795 19.5677 6.51058 18.3557C6.51058 17.4459 6.30913 16.677 6.08083 15.8377C5.80888 14.8036 5.5 13.652 5.5 11.9834C5.5 7.99815 8.77011 5 12.6445 5C16.5223 5 19.5608 8.14588 19.5608 12.0203C19.5738 15.8348 16.496 18.9397 12.6815 18.96ZM12.7386 8.44468C10.8517 8.34733 9.38115 9.65335 9.05549 11.7014C8.78689 13.3969 9.26365 15.4616 9.66989 15.5691C9.86462 15.6161 10.3548 15.2199 10.6603 14.9144C11.1655 15.2634 11.7538 15.473 12.3659 15.5221C14.321 15.6161 15.9915 14.1277 16.1228 12.1748C16.1992 10.2177 14.6939 8.56005 12.7386 8.44805V8.44468Z" fill="#F67011"/>
</g>
<defs>
<clipPath id="clip0_795_2394">
<rect width="20" height="20" fill="white" transform="translate(2.5 2)"/>
</clipPath>
</defs>
</svg>
