<svg width="24" height="24" viewBox="0 0 24 24" fill="none" xmlns="http://www.w3.org/2000/svg">
<rect x="2" y="2" width="20" height="20" rx="5" fill="#FBFBFB"/>
<path d="M16.8242 14.1832L15.1275 13.9895C14.928 13.966 14.7258 13.9881 14.536 14.0541C14.3463 14.12 14.1739 14.2281 14.0319 14.3702L12.8028 15.5994C10.9066 14.6347 9.36526 13.0934 8.40061 11.1972L9.63644 9.96133C9.92368 9.67408 10.064 9.27327 10.0172 8.86579L9.82348 7.18239C9.78575 6.85646 9.6294 6.55581 9.38424 6.33775C9.13907 6.11969 8.82224 5.99947 8.49414 6H7.33848C6.58362 6 5.95569 6.62794 6.00245 7.38279C6.3565 13.0876 10.919 17.6435 16.6172 17.9975C17.372 18.0443 17.9999 17.4164 17.9999 16.6615V15.5059C18.0066 14.8312 17.4989 14.2633 16.8242 14.1832Z" fill="#F67011"/>
</svg>
