<svg width="24" height="24" viewBox="0 0 24 24" fill="none" xmlns="http://www.w3.org/2000/svg">
<path d="M7 8.75C6.13805 8.75 5.3114 9.09241 4.7019 9.7019C4.09241 10.3114 3.75 11.138 3.75 12C3.75 12.862 4.09241 13.6886 4.7019 14.2981C5.3114 14.9076 6.13805 15.25 7 15.25C7.935 15.25 8.71 14.815 9.469 14.054C9.61012 13.917 9.79941 13.8409 9.99608 13.8422C10.1928 13.8434 10.3811 13.9218 10.5205 14.0606C10.6599 14.1993 10.7392 14.3873 10.7413 14.5839C10.7435 14.7806 10.6683 14.9702 10.532 15.112C9.612 16.035 8.478 16.75 7 16.75C5.74022 16.75 4.53204 16.2496 3.64124 15.3588C2.75044 14.468 2.25 13.2598 2.25 12C2.25 10.7402 2.75044 9.53204 3.64124 8.64124C4.53204 7.75045 5.74022 7.25 7 7.25C8.376 7.25 9.457 7.871 10.342 8.704C11.198 9.509 11.923 10.564 12.592 11.538L12.618 11.575C13.317 12.592 13.958 13.519 14.686 14.204C15.395 14.871 16.126 15.25 17 15.25C17.862 15.25 18.6886 14.9076 19.2981 14.2981C19.9076 13.6886 20.25 12.862 20.25 12C20.25 11.138 19.9076 10.3114 19.2981 9.7019C18.6886 9.09241 17.862 8.75 17 8.75C16.065 8.75 15.29 9.185 14.531 9.946C14.3891 10.0788 14.2012 10.1512 14.0068 10.1482C13.8125 10.1451 13.627 10.0668 13.4893 9.92961C13.3516 9.79245 13.2726 9.60721 13.2688 9.41291C13.265 9.21861 13.3368 9.03042 13.469 8.888C14.387 7.965 15.522 7.25 17 7.25C18.2598 7.25 19.468 7.75045 20.3588 8.64124C21.2496 9.53204 21.75 10.7402 21.75 12C21.75 13.2598 21.2496 14.468 20.3588 15.3588C19.468 16.2496 18.2598 16.75 17 16.75C15.624 16.75 14.543 16.129 13.658 15.296C12.802 14.491 12.077 13.436 11.408 12.462L11.382 12.425C10.683 11.408 10.042 10.481 9.314 9.796C8.605 9.13 7.874 8.75 7 8.75Z" fill="#FBFBFB"/>
</svg>
