<svg width="24" height="24" viewBox="0 0 24 24" fill="none" xmlns="http://www.w3.org/2000/svg">
<path d="M11.9984 21.6C10.7377 21.6 9.4894 21.3517 8.32467 20.8692C7.15995 20.3868 6.10165 19.6797 5.21021 18.7882C4.31877 17.8968 3.61164 16.8385 3.12919 15.6738C2.64675 14.509 2.39844 13.2607 2.39844 12L11.9984 12V21.6Z" fill="#B6B6B6"/>
<path d="M21.6 12C20.3393 12 19.091 12.2483 17.9262 12.7308C16.7615 13.2132 15.7032 13.9203 14.8118 14.8118C13.9203 15.7032 13.2132 16.7615 12.7308 17.9262C12.2483 19.091 12 20.3393 12 21.6H21.6V12Z" fill="#F67011"/>
<path d="M2.39844 12.0004C3.65913 12.0004 4.90747 11.7521 6.0722 11.2696C7.23692 10.7872 8.29522 10.0801 9.18666 9.18862C10.0781 8.29717 10.7852 7.23888 11.2677 6.07415C11.7501 4.90943 11.9984 3.66108 11.9984 2.40039L2.39844 2.40039L2.39844 12.0004Z" fill="#F67011"/>
<path d="M12 2.40039C13.2607 2.40039 14.509 2.6487 15.6738 3.13115C16.8385 3.61359 17.8968 4.32072 18.7882 5.21217C19.6797 6.10361 20.3868 7.16191 20.8692 8.32663C21.3517 9.49136 21.6 10.7397 21.6 12.0004L12 12.0004L12 2.40039Z" fill="#B6B6B6"/>
</svg>
