<svg width="308" height="48" viewBox="0 0 308 48" fill="none" xmlns="http://www.w3.org/2000/svg">
<mask id="mask0_795_2026" style="mask-type:luminance" maskUnits="userSpaceOnUse" x="0" y="0" width="308" height="48">
<path d="M308 0H0V47.5391H308V0Z" fill="white"/>
</mask>
<g mask="url(#mask0_795_2026)">
<path fill-rule="evenodd" clip-rule="evenodd" d="M110.665 7.68359C115.217 7.68359 118.995 9.25488 122.002 12.3957C125.008 15.5383 126.513 19.4875 126.513 24.2453C126.513 29.0031 125.01 32.9524 122.002 36.095C118.997 39.2376 115.217 40.8072 110.665 40.8072C106.573 40.8072 103.087 39.5277 100.204 36.9703C97.3234 34.4113 95.5895 31.0912 95.0059 27.0065H91.2096V40.8089H84.6719V7.68359H91.2096V21.4173H95.0059C95.5911 17.3785 97.3344 14.0795 100.235 11.5204C103.138 8.96136 106.613 7.68359 110.665 7.68359ZM103.931 31.585C105.663 33.4252 107.909 34.3462 110.665 34.3462C113.421 34.3462 115.665 33.4271 117.399 31.585C119.131 29.7449 119.999 27.2983 119.999 24.2472C119.999 21.196 119.133 18.7494 117.399 16.9092C115.667 15.069 113.421 14.148 110.665 14.148C107.909 14.148 105.665 15.0672 103.931 16.9092C102.199 18.7494 101.331 21.196 101.331 24.2472C101.331 27.2983 102.197 29.7449 103.931 31.585Z" fill="#F67011"/>
<path fill-rule="evenodd" clip-rule="evenodd" d="M155.322 7.54199H161.888V40.8079H155.322V26.8404H139.581V40.8079H133.016V7.54199H139.581V20.2142H155.322V7.54199Z" fill="#F67011"/>
<path fill-rule="evenodd" clip-rule="evenodd" d="M266.94 7.68359H273.475V40.8072H266.94V26.8993H251.264V40.8072H244.727V7.68359H251.264V20.303H266.94V7.68359Z" fill="#F67011"/>
<path fill-rule="evenodd" clip-rule="evenodd" d="M308.003 7.68359V14.1357H297.264V40.8072H290.726V14.1357H280.055V7.68359H308.003Z" fill="#F67011"/>
<path fill-rule="evenodd" clip-rule="evenodd" d="M168.477 7.54199V40.8079H175.121L177.455 37.5053L191.252 17.9733H191.345V40.8079H197.947V7.54199H191.11L188.917 10.5967L174.98 30.0093H175.085V7.54199H168.477Z" fill="#F67011"/>
<path d="M32.8536 7.88187L16.5874 21.9443L9.21846 14.6064L18.8112 6.57774H23.4975L30.7966 0.456055H16.413L0.00366977 14.2162L0 14.2198L0.00550465 14.225L32.826 47.0867V38.2425V14.5238L32.8536 14.2988V7.88187Z" fill="#F67011"/>
<path d="M37.4766 7.88187L53.7427 21.9443L61.1117 14.6064L51.5188 6.57774H46.8327L39.5334 0.456055H53.917L70.3265 14.2162L70.3302 14.2198L70.3246 14.225L37.504 47.0867V38.2425V14.5238L37.4766 14.2988V7.88187Z" fill="#F67011"/>
<path fill-rule="evenodd" clip-rule="evenodd" d="M220.077 41.5277C215.704 41.5277 212.023 39.9634 209.033 36.8348C206.041 33.7064 204.547 29.5268 204.547 24.298C204.547 19.0692 206.041 14.8896 209.033 11.7611C212.023 8.63262 215.706 7.06836 220.077 7.06836C225.047 7.06836 228.637 9.00521 230.845 12.8825H230.984V8.1194H237.748V40.4767H230.984V35.7135H230.845C228.637 39.589 225.047 41.5277 220.077 41.5277ZM214.416 31.8978C216.21 33.8365 218.581 34.8049 221.526 34.8049C224.472 34.8049 226.843 33.8365 228.637 31.8978C230.431 29.961 231.329 27.4264 231.329 24.298C231.329 21.1694 230.431 18.6367 228.637 16.6982C226.843 14.7596 224.472 13.7911 221.526 13.7911C218.581 13.7911 216.21 14.7596 214.416 16.6982C212.623 18.6367 211.724 21.1694 211.724 24.298C211.724 27.4264 212.623 29.9592 214.416 31.8978Z" fill="#F67011"/>
</g>
</svg>
