<svg width="127" height="38" viewBox="0 0 127 38" fill="none" xmlns="http://www.w3.org/2000/svg">
<path d="M29.9514 24.2628L21.9073 15.7808V21.4219L28.6567 26.7868C36.4179 30.2577 31.5272 40.2406 24.3318 35.5448C29.4654 42.8443 42.6014 32.3092 29.9496 24.2609L29.9514 24.2628Z" fill="#FBFBFB"/>
<path d="M11.0728 7.6903H19.3181L20.9012 6.07254L20.0053 5.0477L18.7523 6.07254L17.9037 5.0477L16.7323 6.07254L15.8836 5.0477L14.7521 6.07254L13.7819 5.0477L12.8118 6.07254L11.8017 5.0477L11.3575 5.56101L9.94304 5.83712L11.0746 7.69212L11.0728 7.6903Z" fill="#FBFBFB"/>
<path d="M7.59758 17.8288H3.92008L7.31469 20.275H5.61738C2.96807 22.6362 4.43327 24.2079 9.05368 27.1798C7.52322 29.6897 6.51319 30.1889 4.64906 30.6915L3.7188 32.743H10.2269L12.2489 27.3373L9.94409 23.9053L11.5199 23.1955C12.8926 24.7195 13.9461 25.1637 16.532 24.9319L17.2591 18.7776L15.6017 20.514L12.8128 18.5422V16.6093H10.2251V18.5422L8.93219 17.358L7.59758 18.5422V17.8288Z" fill="#F67011"/>
<path d="M21.9073 21.4207L22.1504 24.2616L23.8875 26.7874L28.3738 28.9185C33.6289 31.7593 29.3439 38.8164 24.3318 35.5472C31.5254 40.243 36.416 30.2601 28.6567 26.7892L21.9073 21.4243V21.4207Z" fill="#F67011"/>
<path d="M5.01938 12.3067C3.22959 11.9739 2.84334 12.5793 3.15343 14.9104C0.825078 14.2608 0.195843 15.1227 0 18.3424L1.17143 17.199L2.46435 18.5407V16.3706H4.2088L5.01756 12.3067H5.01938Z" fill="#F67011"/>
<path fill-rule="evenodd" clip-rule="evenodd" d="M20.1271 1.4992L21.9061 5.04984L21.1136 5.86051L20.0074 4.62327L18.7544 5.66403L17.9058 4.62327L16.7344 5.66403L15.8857 4.62327L14.7542 5.66403L13.784 4.62327L12.8139 5.66403L11.9616 4.74009L11.8038 5.05161L11.3596 5.56491L9.94514 5.84104V8.64295H12.8157L13.463 10.852L18.2721 14.9159L21.9097 15.7832V21.4242L22.1526 24.2651L23.8898 26.7909C23.9732 29.0459 24.1746 30.1468 25.6687 30.8938V32.7487H18.5949V30.8938C20.2323 30.161 20.9432 29.5574 20.9794 27.3431L16.5331 24.9359L17.2603 18.7816L15.6028 20.518L12.8139 18.5462V14.7194C12.7449 13.0803 12.3206 12.5087 10.8337 12.1547V14.7194C8.35845 14.1937 7.89603 15.2291 7.60042 17.8364H3.92297L6.30935 5.8428C7.01837 1.98949 7.85071 0.615964 10.4674 0.237182L18.2684 0C19.3329 0.0973503 19.7137 0.463743 20.1271 1.4992ZM12.8121 3.39311L14.4695 1.81426H11.1963L12.8139 3.39311H12.8121Z" fill="#F67011"/>
<path d="M48.6143 23.2786V29.2718H45.5443V25.6292H36.5609V13.4727H39.7361V23.2272H42.9983V13.4727H46.1735V23.2786H48.6161H48.6143ZM57.1298 25.6274H50.1883V13.4709H57.1298V15.8198H53.3453V18.1526H56.8687V20.5014H53.3453V23.2432H57.1298V25.6274ZM69.2104 25.6274H66.0352V20.5209H62.3541V25.6274H59.1789V13.4709H62.3541V18.119H66.0352V13.4709H69.2104V25.6274ZM82.687 19.5332C82.687 20.4749 82.5765 21.3316 82.3554 22.1033C82.1471 22.8644 81.8096 23.5228 81.3437 24.0786C80.8905 24.6344 80.3028 25.061 79.583 25.3548C78.8737 25.6504 78.0128 25.7973 77.0025 25.7973C75.9923 25.7973 75.1597 25.6504 74.4383 25.3548C73.7293 25.0486 73.1418 24.622 72.6775 24.0786C72.2242 23.5228 71.8815 22.8591 71.6494 22.0873C71.4281 21.3157 71.3176 20.4589 71.3176 19.5173C71.3176 18.2571 71.5152 17.1614 71.9105 16.2322C72.3167 15.3012 72.9387 14.5808 73.7764 14.0692C74.6251 13.5471 75.7055 13.2869 77.0204 13.2869C78.3353 13.2869 79.4397 13.5488 80.2648 14.0692C81.1025 14.5808 81.7118 15.3065 82.0963 16.2481C82.4913 17.1791 82.6892 18.2748 82.6892 19.5332H82.687ZM74.6287 19.5332C74.6287 20.328 74.7102 21.0147 74.8737 21.5936C75.0365 22.1617 75.2926 22.5972 75.6406 22.9051C75.9885 23.2113 76.4418 23.3653 77.0003 23.3653C77.5588 23.3653 78.0411 23.2131 78.3786 22.9051C78.7266 22.5989 78.9775 22.1617 79.1298 21.5936C79.2926 21.0147 79.374 20.328 79.374 19.5332C79.374 18.3297 79.1948 17.388 78.8341 16.7066C78.4727 16.0251 77.8694 15.6852 77.0204 15.6852C76.4515 15.6852 75.9848 15.8446 75.6242 16.1614C75.2762 16.4676 75.0201 16.9101 74.8573 17.4889C74.7065 18.0571 74.6306 18.7367 74.6306 19.5315L74.6287 19.5332ZM93.0867 16.3154C93.0867 17.1331 92.8492 17.7845 92.3721 18.273C91.8957 18.7615 91.2155 19.0784 90.3322 19.2271V19.2784C91.4134 19.381 92.2168 19.6872 92.7387 20.197C93.2629 20.7085 93.5242 21.3652 93.5242 22.1723C93.5242 22.8768 93.3368 23.5051 92.9657 24.0627C92.5939 24.6079 92.0406 25.0327 91.3081 25.3389C90.5756 25.6451 89.6796 25.799 88.6223 25.799C87.565 25.799 86.7384 25.7424 86.006 25.6292C85.2735 25.5035 84.6619 25.3389 84.1744 25.1353V22.6662C84.4992 22.8361 84.8725 22.9848 85.2914 23.1087C85.7207 23.2219 86.1583 23.3122 86.5988 23.3812C87.0408 23.4379 87.4418 23.4662 87.8025 23.4662C88.7097 23.4662 89.3496 23.3352 89.7214 23.0751C90.1059 22.813 90.2964 22.4272 90.2964 21.9175C90.2964 21.4077 90.0694 21.0484 89.6161 20.8112C89.1629 20.5723 88.4879 20.4537 87.5926 20.4537H86.2143V18.1544H87.453C88.1385 18.1544 88.6566 18.1031 89.0053 18.0004C89.3533 17.8871 89.5922 17.7331 89.7192 17.5402C89.8483 17.3366 89.9118 17.0924 89.9118 16.8074C89.9118 16.4445 89.7826 16.1614 89.5273 15.9561C89.2719 15.7525 88.8418 15.6498 88.2363 15.6498C87.7487 15.6498 87.2589 15.7295 86.7713 15.8888C86.2942 16.0481 85.8462 16.2747 85.4273 16.5703L84.1019 14.6126C84.5313 14.3294 84.974 14.0904 85.4273 13.8975C85.8932 13.7046 86.392 13.5577 86.9266 13.455C87.4724 13.3523 88.1071 13.301 88.8276 13.301C89.7102 13.301 90.4666 13.432 91.0938 13.6922C91.7345 13.9524 92.222 14.31 92.5595 14.7648C92.9075 15.2074 93.0829 15.7242 93.0829 16.3136L93.0867 16.3154ZM102.732 25.6274L102.157 23.0219H98.3545L97.7616 25.6274H94.2911L98.1096 13.4214H102.313L106.185 25.6274H102.732ZM100.848 18.1526C100.79 17.9031 100.719 17.6305 100.639 17.3349C100.569 17.0287 100.5 16.7171 100.431 16.3986C100.36 16.0693 100.297 15.7525 100.239 15.4445C100.191 15.7507 100.134 16.0693 100.064 16.3986C99.9942 16.7171 99.9248 17.0287 99.8561 17.3349C99.7978 17.6305 99.7344 17.9031 99.6642 18.1526L99.0004 20.6041H101.511L100.848 18.1526ZM111.516 13.4709C112.644 13.4709 113.556 13.5789 114.254 13.7949C114.952 14.0108 115.459 14.3454 115.772 14.7985C116.086 15.241 116.243 15.8198 116.243 16.5348C116.243 17.0234 116.151 17.4535 115.964 17.8287C115.777 18.1915 115.545 18.4925 115.266 18.7315C114.987 18.958 114.702 19.1067 114.412 19.1739V19.2589C114.715 19.3386 115.029 19.4801 115.353 19.6855C115.68 19.8784 115.946 20.1669 116.155 20.5528C116.363 20.9386 116.468 21.4501 116.468 22.0856C116.468 22.8237 116.289 23.4591 115.928 23.9919C115.567 24.5247 115.05 24.9336 114.376 25.2185C113.714 25.4911 112.923 25.6274 112.004 25.6274H107.452V13.4709H111.516ZM111.551 18.2216C112.085 18.2216 112.457 18.1084 112.668 17.8818C112.889 17.6429 112.999 17.3261 112.999 16.9278C112.999 16.5295 112.878 16.2357 112.633 16.0428C112.388 15.8498 112.011 15.7525 111.5 15.7525H110.61V18.2216H111.551ZM110.61 20.4341V23.3122H111.727C112.285 23.3122 112.668 23.1759 112.878 22.9033C113.099 22.6308 113.21 22.2732 113.21 21.8307C113.21 21.5581 113.163 21.3192 113.07 21.1156C112.977 20.8997 112.82 20.7351 112.599 20.6218C112.377 20.4961 112.069 20.4341 111.674 20.4341H110.61ZM122.554 13.4709C124.03 13.4709 125.142 13.8108 125.885 14.4922C126.629 15.1613 127 16.0976 127 17.3013C127 17.8464 126.919 18.3686 126.756 18.8678C126.605 19.3562 126.355 19.7934 126.005 20.1793C125.667 20.5652 125.214 20.8714 124.645 21.098C124.086 21.3245 123.39 21.4377 122.552 21.4377H121.663V25.6256H118.507V13.4692H122.554V13.4709ZM122.501 15.8374H121.663V19.0712H122.291C122.57 19.0712 122.826 19.0146 123.058 18.9014C123.303 18.7881 123.494 18.6057 123.633 18.3562C123.773 18.1066 123.842 17.7827 123.842 17.3862C123.842 16.8871 123.731 16.5065 123.509 16.2446C123.288 15.972 122.951 15.8357 122.498 15.8357L122.501 15.8374Z" fill="#F67011"/>
</svg>
