<svg width="24" height="24" viewBox="0 0 24 24" fill="none" xmlns="http://www.w3.org/2000/svg">
<path d="M16.8 11.4004C19.451 11.4004 21.6 13.5494 21.6 16.2004C21.6 18.8514 19.451 21.0004 16.8 21.0004C14.149 21.0004 12 18.8514 12 16.2004C12 13.5494 14.149 11.4004 16.8 11.4004Z" fill="#B6B6B6"/>
<path d="M7.19844 11.4004C4.54747 11.4004 2.39844 13.5494 2.39844 16.2004C2.39844 18.8514 4.54747 21.0004 7.19844 21.0004C9.8494 21.0004 11.9984 18.8514 11.9984 16.2004C11.9984 13.5494 9.84941 11.4004 7.19844 11.4004Z" fill="#F67011"/>
<path d="M16.8031 7.8C16.8031 5.14903 14.6541 3 12.0031 3C9.35216 3 7.20312 5.14903 7.20312 7.8C7.20313 10.451 9.35216 12.6 12.0031 12.6C14.6541 12.6 16.8031 10.451 16.8031 7.8Z" fill="#FBFBFB"/>
</svg>
