<svg width="24" height="24" viewBox="0 0 24 24" fill="none" xmlns="http://www.w3.org/2000/svg">
<path d="M2.39844 15.1342C2.39844 18.7052 5.35336 21.6 8.99844 21.6L8.99844 15.4658C8.99844 11.8948 6.04351 9 2.39844 9L2.39844 15.1342Z" fill="#F67011"/>
<path d="M15 8.5346C15 12.1056 17.9549 15.0004 21.6 15.0004L21.6 8.86618C21.6 5.29522 18.6451 2.40039 15 2.40039L15 8.5346Z" fill="#F67011"/>
<path d="M8.86423 2.40039C5.29327 2.40039 2.39844 5.35531 2.39844 9.00039H8.53265C12.1036 9.00039 14.9984 6.04547 14.9984 2.40039L8.86423 2.40039Z" fill="#B6B6B6"/>
<path d="M15.4658 15C11.8948 15 9 17.9549 9 21.6H15.1342C18.7052 21.6 21.6 18.6451 21.6 15L15.4658 15Z" fill="#B6B6B6"/>
</svg>
