<svg width="24" height="24" viewBox="0 0 24 24" fill="none" xmlns="http://www.w3.org/2000/svg">
<path d="M21.6031 13.8004C21.6031 12.3033 21.3083 10.8209 20.7354 9.4378C20.1624 8.05469 19.3227 6.79796 18.2641 5.73937C17.2056 4.68079 15.9488 3.84107 14.5657 3.26816C13.1826 2.69526 11.7002 2.40039 10.2031 2.40039V13.8004H21.6031Z" fill="#B6B6B6"/>
<path d="M18.0063 13.8C18.0063 18.1078 14.5141 21.6 10.2063 21.6C5.89843 21.6 2.40625 18.1078 2.40625 13.8C2.40625 9.49218 5.89843 6 10.2063 6C14.5141 6 18.0063 9.49218 18.0063 13.8ZM7.08625 13.8C7.08625 15.5231 8.48312 16.92 10.2063 16.92C11.9294 16.92 13.3263 15.5231 13.3263 13.8C13.3263 12.0769 11.9294 10.68 10.2063 10.68C8.48312 10.68 7.08625 12.0769 7.08625 13.8Z" fill="#F67011"/>
</svg>
