<svg width="24" height="24" viewBox="0 0 24 24" fill="none" xmlns="http://www.w3.org/2000/svg">
<g clip-path="url(#clip0_324_8846)">
<rect x="2" y="2" width="20" height="20" rx="5" fill="white"/>
<mask id="mask0_324_8846" style="mask-type:luminance" maskUnits="userSpaceOnUse" x="2" y="2" width="20" height="20">
<path d="M17.1515 2H6.84848C4.17074 2 2 4.17074 2 6.84848V17.1515C2 19.8293 4.17074 22 6.84848 22H17.1515C19.8293 22 22 19.8293 22 17.1515V6.84848C22 4.17074 19.8293 2 17.1515 2Z" fill="white"/>
</mask>
<g mask="url(#mask0_324_8846)">
<path d="M14.3521 11.5434H8.44335V9.20526H14.3521C14.6972 9.20526 14.9372 9.26542 15.0576 9.37047C15.1781 9.47553 15.2527 9.67038 15.2527 9.95502V10.7946C15.2527 11.0945 15.1781 11.2893 15.0576 11.3944C14.9372 11.4994 14.6972 11.5443 14.3521 11.5443V11.5434ZM14.7574 7.00089H5.9375V17H8.44335V13.7469H13.0614L15.2527 17H18.0587L15.6427 13.7316C16.5335 13.5996 16.9334 13.3267 17.2633 12.8768C17.5931 12.427 17.7586 11.7077 17.7586 10.7479V9.99812C17.7586 9.42883 17.6983 8.97899 17.5931 8.6342C17.488 8.28939 17.3083 7.9895 17.053 7.72012C16.7833 7.46512 16.4831 7.28553 16.1227 7.16521C15.7623 7.06017 15.312 7 14.7574 7V7.00089Z" fill="#F67011"/>
<path d="M31.9961 2C31.9961 7.52285 27.519 12 21.9961 12C20.8732 12 19.7937 11.8149 18.7861 11.4736C18.8076 11.236 18.8172 10.993 18.8172 10.7479V9.99812C18.8172 9.36151 18.7506 8.80036 18.6056 8.32479C18.4491 7.81194 18.1809 7.37057 17.8208 6.99061L17.8008 6.96951L17.7797 6.94954C17.3961 6.58668 16.9612 6.32765 16.4565 6.15918L16.4371 6.15271L16.4175 6.14698C15.9371 6.00697 15.3826 5.93939 14.7554 5.93939H13.6948V5.94029H12.8023C12.2834 4.73117 11.9961 3.39914 11.9961 2C11.9961 -3.52285 16.4732 -8 21.9961 -8C27.519 -8 31.9961 -3.52285 31.9961 2Z" fill="#F67011"/>
</g>
</g>
<defs>
<clipPath id="clip0_324_8846">
<rect x="2" y="2" width="20" height="20" rx="5" fill="white"/>
</clipPath>
</defs>
</svg>
